<svg width="125" height="24" viewBox="0 0 125 24" fill="none" xmlns="http://www.w3.org/2000/svg">
<g id="Logo">
<g id="Group">
<path id="Vector" d="M117.458 7.60269C117.458 7.87116 117.238 8.06642 116.994 8.06642H113.65C113.382 8.06642 113.04 8.21286 112.845 8.40811L110.673 10.5803C110.477 10.7756 110.477 11.0684 110.673 11.2393L112.845 13.4115C113.04 13.6068 113.382 13.7532 113.65 13.7532H116.994C117.262 13.7532 117.458 13.9729 117.458 14.2169V16.1695C117.458 16.4379 117.238 16.6332 116.994 16.6332H112.235C111.966 16.6332 111.624 16.4868 111.429 16.2915L106.401 11.2637C106.206 11.0684 106.206 10.7756 106.401 10.6047L111.429 5.57692C111.624 5.38167 111.966 5.23523 112.235 5.23523H116.994C117.262 5.23523 117.458 5.45489 117.458 5.69896V7.60269Z" fill="#00BFAD"/>
<path id="Vector_2" d="M1.7451 16.2915V0.378274H0.549164V16.2915H1.7451ZM5.04001 5.06438V16.2915H6.16272V10.0434C6.16272 7.72471 7.77357 5.96743 10.0922 5.94302C12.5329 5.91861 14.0949 7.28539 14.0949 9.8237V16.2671H15.1932V9.79929C15.1932 6.67522 13.1187 4.84471 10.1166 4.84471C8.55459 4.86912 6.99255 5.5037 6.11391 7.04132V5.03997L5.04001 5.06438ZM26.4936 6.38234C25.3709 5.33285 23.9553 4.89353 22.32 4.89353C20.0502 4.86912 17.8536 5.82099 17.878 8.0176C17.9024 10.263 20.0502 10.6779 22.2468 11.044C24.0773 11.3369 25.9566 11.6542 25.9078 13.2651C25.8346 15.0467 23.76 15.4129 22.4176 15.4129C20.9288 15.4129 19.2448 14.8515 18.3173 13.5091L17.4875 14.2413C18.4637 15.7301 20.4163 16.4867 22.3932 16.4867C24.3702 16.4867 26.9329 15.8278 27.0061 13.3627C27.1281 10.7512 24.3702 10.4095 22.3688 10.0678C20.9532 9.8237 19.0007 9.53082 18.9519 8.0176C18.9031 6.5776 20.5871 5.91861 22.3444 5.94302C23.5892 5.94302 24.7119 6.11387 25.8346 7.11455L26.4936 6.38234ZM34.5234 16.4379C36.3295 16.4379 38.282 15.7057 39.3559 14.2901L38.5505 13.6556C37.7207 14.7783 35.9878 15.364 34.499 15.364C32.1804 15.364 30.1546 13.8508 29.9349 11.2149H40.0393C40.4787 6.82166 37.6475 4.89353 34.499 4.89353C31.3505 4.89353 28.7878 7.33421 28.7878 10.6779C28.8122 14.2413 31.3505 16.4379 34.5234 16.4379ZM29.9593 10.2142C30.2034 7.45624 32.2048 5.89421 34.5234 5.89421C37.2326 5.89421 39.0387 7.43183 39.0631 10.2142H29.9593ZM42.9437 5.06438V16.2915H44.0665V9.75048C44.0665 7.70031 45.6773 6.01624 47.7763 5.99183C48.4353 5.99183 49.0943 6.16268 49.68 6.50438L50.1682 5.60133C49.4115 5.1376 48.6061 4.91793 47.7519 4.94234C46.3119 4.94234 44.7254 5.5281 44.0176 7.06573L43.9688 5.06438H42.9437ZM54.0244 1.79387V5.06438H51.6326V5.99183H54.0244V12.8257C54.0244 15.0223 54.8054 16.4379 57.1729 16.4379C57.8807 16.4379 58.5885 16.2183 59.2963 15.8766L58.9058 14.9735C58.3444 15.242 57.7343 15.4373 57.1729 15.4373C55.4156 15.4373 55.0983 14.3634 55.0983 12.8501V6.01624H58.9058V5.08878H55.0983V1.67183L54.0244 1.79387ZM61.2732 14.8515C61.2732 16.9749 64.4949 16.9749 64.4949 14.8515C64.4949 12.7037 61.2732 12.7037 61.2732 14.8515ZM61.2732 8.26166C61.2732 10.3851 64.4949 10.3851 64.4949 8.26166C64.4949 6.13827 61.2732 6.13827 61.2732 8.26166ZM66.7648 0.378274V16.2915H75.0875L73.6963 13.5091H69.7424V0.378274H66.7648ZM81.1404 4.84471C77.577 4.84471 75.3559 7.48065 75.3559 10.6779C75.3559 13.8996 77.5282 16.5112 81.1648 16.5112C84.8014 16.5112 86.998 13.8996 86.998 10.6779C86.998 7.48065 84.7038 4.84471 81.1404 4.84471ZM81.1648 7.38302C83.0197 7.38302 84.2156 9.01827 84.2156 10.7023C84.2156 12.4108 83.1905 13.9973 81.1648 13.9973C79.139 13.9973 78.1139 12.4108 78.1139 10.7023C78.1139 9.01827 79.1634 7.38302 81.1648 7.38302ZM96.5899 5.35726C95.8088 4.84471 94.9058 4.72268 94.0271 4.72268C90.9031 4.72268 88.3404 6.89488 88.3404 10.4095C88.3404 13.924 90.5126 16.0474 94.0271 16.0474C95.4183 16.0474 96.8583 16.7552 96.8583 18.2928C96.8583 19.8305 95.6136 20.7091 94.0271 20.7091C92.4407 20.7091 91.0983 19.7573 91.0983 18.2928H88.3404C88.3404 21.3193 90.781 23.2962 94.0271 23.2962C97.2732 23.2962 99.6407 21.3925 99.6407 18.2928C99.6407 16.8528 99.177 15.5105 97.3221 14.583C99.1526 13.7532 99.6895 11.8006 99.6895 10.4095C99.6895 9.18912 99.3722 8.06641 98.518 7.09014L99.7627 5.5037L97.7126 3.96607L96.5899 5.35726ZM94.0271 7.23658C95.6136 7.23658 96.9315 8.45692 96.9315 10.3851C96.9315 12.3132 95.6136 13.5091 94.0271 13.5091C92.4163 13.5091 91.0983 12.362 91.0983 10.3851C91.0739 8.43251 92.3919 7.23658 94.0271 7.23658ZM104.229 5.03997V16.2915H101.447V5.03997H104.229ZM101.203 1.9159C101.203 4.0637 104.473 4.0637 104.473 1.9159C104.473 -0.231895 101.203 -0.231895 101.203 1.9159Z" fill="#262626"/>
</g>
<g id="Group_2">
<path id="Vector_3" d="M123.974 6.1871C123.974 7.40743 122.998 8.3593 121.753 8.3593C120.508 8.3593 119.532 7.40743 119.532 6.1871C119.532 4.96676 120.533 4.01489 121.778 4.01489C122.998 4.0393 123.974 4.99116 123.974 6.1871ZM120.069 6.1871C120.069 7.13896 120.801 7.91998 121.753 7.91998C122.681 7.94438 123.413 7.16337 123.413 6.2115C123.413 5.25964 122.705 4.47862 121.729 4.47862C120.801 4.47862 120.069 5.23523 120.069 6.1871ZM121.412 7.30981H120.899V5.1376C121.094 5.1132 121.363 5.06438 121.729 5.06438C122.144 5.06438 122.315 5.1376 122.461 5.23523C122.583 5.33286 122.681 5.4793 122.681 5.69896C122.681 5.96743 122.485 6.13828 122.241 6.2115V6.23591C122.461 6.30913 122.559 6.47998 122.632 6.77286C122.705 7.09015 122.754 7.21218 122.778 7.30981H122.241C122.168 7.23659 122.144 7.04133 122.071 6.77286C122.022 6.5532 121.9 6.43116 121.631 6.43116H121.387V7.30981H121.412ZM121.412 6.11388H121.656C121.924 6.11388 122.168 6.01625 122.168 5.79659C122.168 5.60133 122.022 5.4793 121.704 5.4793C121.582 5.4793 121.485 5.50371 121.436 5.50371L121.412 6.11388Z" fill="#262626"/>
</g>
</g>
</svg>
