<svg width="125" height="24" viewBox="0 0 125 24" fill="none" xmlns="http://www.w3.org/2000/svg">
<g id="logo">
<g id="Group">
<path id="Vector" d="M117.458 7.60269C117.458 7.87116 117.238 8.06642 116.994 8.06642H113.65C113.382 8.06642 113.04 8.21286 112.845 8.40811L110.673 10.5803C110.477 10.7756 110.477 11.0684 110.673 11.2393L112.845 13.4115C113.04 13.6068 113.382 13.7532 113.65 13.7532H116.994C117.262 13.7532 117.458 13.9729 117.458 14.2169V16.1695C117.458 16.4379 117.238 16.6332 116.994 16.6332H112.235C111.966 16.6332 111.624 16.4868 111.429 16.2915L106.401 11.2637C106.206 11.0684 106.206 10.7756 106.401 10.6047L111.429 5.57692C111.624 5.38167 111.966 5.23523 112.235 5.23523H116.994C117.262 5.23523 117.458 5.45489 117.458 5.69896V7.60269Z" fill="#00BFAD"/>
<path id="Vector_2" d="M1.745 16.2915V0.378274H0.549072V16.2915H1.745ZM5.03992 5.06438V16.2915H6.16263V10.0434C6.16263 7.72471 7.77348 5.96743 10.0921 5.94302C12.5328 5.91861 14.0948 7.28539 14.0948 9.8237V16.2671H15.1931V9.79929C15.1931 6.67522 13.1186 4.84471 10.1165 4.84471C8.5545 4.86912 6.99246 5.5037 6.11382 7.04132V5.03997L5.03992 5.06438ZM26.4935 6.38234C25.3708 5.33285 23.9552 4.89353 22.3199 4.89353C20.0501 4.86912 17.8535 5.82099 17.8779 8.0176C17.9023 10.263 20.0501 10.6779 22.2467 11.044C24.0772 11.3369 25.9565 11.6542 25.9077 13.2651C25.8345 15.0467 23.7599 15.4129 22.4175 15.4129C20.9287 15.4129 19.2447 14.8515 18.3172 13.5091L17.4874 14.2413C18.4636 15.7301 20.4162 16.4867 22.3931 16.4867C24.3701 16.4867 26.9328 15.8278 27.006 13.3627C27.1281 10.7512 24.3701 10.4095 22.3687 10.0678C20.9531 9.8237 19.0006 9.53082 18.9518 8.0176C18.903 6.5776 20.587 5.91861 22.3443 5.94302C23.5891 5.94302 24.7118 6.11387 25.8345 7.11455L26.4935 6.38234ZM34.5233 16.4379C36.3294 16.4379 38.282 15.7057 39.3559 14.2901L38.5504 13.6556C37.7206 14.7783 35.9877 15.364 34.4989 15.364C32.1803 15.364 30.1545 13.8508 29.9348 11.2149H40.0392C40.4786 6.82166 37.6474 4.89353 34.4989 4.89353C31.3504 4.89353 28.7877 7.33421 28.7877 10.6779C28.8121 14.2413 31.3504 16.4379 34.5233 16.4379ZM29.9592 10.2142C30.2033 7.45624 32.2047 5.89421 34.5233 5.89421C37.2325 5.89421 39.0386 7.43183 39.063 10.2142H29.9592ZM42.9437 5.06438V16.2915H44.0664V9.75048C44.0664 7.70031 45.6772 6.01624 47.7762 5.99183C48.4352 5.99183 49.0942 6.16268 49.6799 6.50438L50.1681 5.60133C49.4114 5.1376 48.606 4.91793 47.7518 4.94234C46.3118 4.94234 44.7253 5.5281 44.0176 7.06573L43.9687 5.06438H42.9437ZM54.0243 1.79387V5.06438H51.6325V5.99183H54.0243V12.8257C54.0243 15.0223 54.8053 16.4379 57.1728 16.4379C57.8806 16.4379 58.5884 16.2183 59.2962 15.8766L58.9057 14.9735C58.3443 15.242 57.7342 15.4373 57.1728 15.4373C55.4155 15.4373 55.0982 14.3634 55.0982 12.8501V6.01624H58.9057V5.08878H55.0982V1.67183L54.0243 1.79387ZM61.2731 14.8515C61.2731 16.9749 64.4948 16.9749 64.4948 14.8515C64.4948 12.7037 61.2731 12.7037 61.2731 14.8515ZM61.2731 8.26166C61.2731 10.3851 64.4948 10.3851 64.4948 8.26166C64.4948 6.13827 61.2731 6.13827 61.2731 8.26166ZM66.7647 0.378274V16.2915H75.0874L73.6962 13.5091H69.7423V0.378274H66.7647ZM81.1403 4.84471C77.5769 4.84471 75.3559 7.48065 75.3559 10.6779C75.3559 13.8996 77.5281 16.5112 81.1647 16.5112C84.8013 16.5112 86.9979 13.8996 86.9979 10.6779C86.9979 7.48065 84.7037 4.84471 81.1403 4.84471ZM81.1647 7.38302C83.0196 7.38302 84.2155 9.01827 84.2155 10.7023C84.2155 12.4108 83.1904 13.9973 81.1647 13.9973C79.1389 13.9973 78.1138 12.4108 78.1138 10.7023C78.1138 9.01827 79.1633 7.38302 81.1647 7.38302ZM96.5898 5.35726C95.8087 4.84471 94.9057 4.72268 94.027 4.72268C90.903 4.72268 88.3403 6.89488 88.3403 10.4095C88.3403 13.924 90.5125 16.0474 94.027 16.0474C95.4182 16.0474 96.8582 16.7552 96.8582 18.2928C96.8582 19.8305 95.6135 20.7091 94.027 20.7091C92.4406 20.7091 91.0982 19.7573 91.0982 18.2928H88.3403C88.3403 21.3193 90.7809 23.2962 94.027 23.2962C97.2731 23.2962 99.6406 21.3925 99.6406 18.2928C99.6406 16.8528 99.1769 15.5105 97.322 14.583C99.1525 13.7532 99.6894 11.8006 99.6894 10.4095C99.6894 9.18912 99.3721 8.06641 98.5179 7.09014L99.7626 5.5037L97.7125 3.96607L96.5898 5.35726ZM94.027 7.23658C95.6135 7.23658 96.9314 8.45692 96.9314 10.3851C96.9314 12.3132 95.6135 13.5091 94.027 13.5091C92.4162 13.5091 91.0982 12.362 91.0982 10.3851C91.0738 8.43251 92.3918 7.23658 94.027 7.23658ZM104.229 5.03997V16.2915H101.447V5.03997H104.229ZM101.203 1.9159C101.203 4.0637 104.473 4.0637 104.473 1.9159C104.473 -0.231895 101.203 -0.231895 101.203 1.9159Z" fill="white"/>
</g>
<g id="Group_2">
<path id="Vector_3" d="M123.974 6.1871C123.974 7.40743 122.998 8.3593 121.753 8.3593C120.508 8.3593 119.532 7.40743 119.532 6.1871C119.532 4.96676 120.533 4.01489 121.778 4.01489C122.998 4.0393 123.974 4.99116 123.974 6.1871ZM120.069 6.1871C120.069 7.13896 120.801 7.91998 121.753 7.91998C122.681 7.94438 123.413 7.16337 123.413 6.2115C123.413 5.25964 122.705 4.47862 121.729 4.47862C120.801 4.47862 120.069 5.23523 120.069 6.1871ZM121.412 7.30981H120.899V5.1376C121.094 5.1132 121.363 5.06438 121.729 5.06438C122.144 5.06438 122.315 5.1376 122.461 5.23523C122.583 5.33286 122.681 5.4793 122.681 5.69896C122.681 5.96743 122.485 6.13828 122.241 6.2115V6.23591C122.461 6.30913 122.559 6.47998 122.632 6.77286C122.705 7.09015 122.754 7.21218 122.778 7.30981H122.241C122.168 7.23659 122.144 7.04133 122.071 6.77286C122.022 6.5532 121.9 6.43116 121.631 6.43116H121.387V7.30981H121.412ZM121.412 6.11388H121.656C121.924 6.11388 122.168 6.01625 122.168 5.79659C122.168 5.60133 122.022 5.4793 121.704 5.4793C121.582 5.4793 121.485 5.50371 121.436 5.50371L121.412 6.11388Z" fill="white"/>
</g>
</g>
</svg>
